<svg version="1.1" id="Layer_1" xmlns="http://www.w3.org/2000/svg" x="0" y="0" viewBox="0 0 400 400" xml:space="preserve"><style type="text/css">.st0{fill:#bcbcbc}</style><path class="st0" d="M357.4 373.8H42.6c-16.9 0-30.6-13.7-30.6-30.6V97c0-16.9 13.7-30.6 30.6-30.6h78.8l37.1-40.2h80.1l40.9 40.2h77.8c16.9 0 30.6 13.7 30.6 30.6v246.2c.1 16.9-13.6 30.6-30.5 30.6zM42.6 84.8c-6.7 0-12.2 5.5-12.2 12.2v246.2c0 6.7 5.5 12.2 12.2 12.2h314.7c6.7 0 12.2-5.5 12.2-12.2V97c0-6.7-5.5-12.2-12.2-12.2H272l-40.9-40.2h-64.5l-37.1 40.2H42.6z"/><path class="st0" d="M200 306.2c-51.7 0-93.7-42.1-93.7-93.7 0-51.7 42.1-93.7 93.7-93.7s93.7 42.1 93.7 93.7c0 51.7-42 93.7-93.7 93.7zm0-169c-41.5 0-75.3 33.8-75.3 75.3s33.8 75.3 75.3 75.3 75.3-33.8 75.3-75.3-33.8-75.3-75.3-75.3z"/></svg>