<svg version="1.1" id="Layer_1" xmlns="http://www.w3.org/2000/svg" x="0" y="0" viewBox="0 0 90 408.5" xml:space="preserve"><style type="text/css">.st0{fill:#081e2e}.st1{fill:#5e8da3}</style><path class="st0" d="M35.5 30.3c-5.5-1.7-9.6-5.9-9.6-13.7C25.9 6.4 33.5 1 43 1c9.1 0 17.3 5.3 17.3 15.7 0 7.9-4.2 12.4-9.9 13.6v-3.6c4-1.5 6.9-4.2 6.9-10.1 0-8.3-7.2-11.8-14.3-11.8-6.9 0-14.2 3.3-14.2 12 0 5.6 2.9 8.3 6.6 9.9l.1 3.6zM43.3 73c-9.2 0-17.5-5.3-17.5-16.3 0-10.2 7.6-15.9 17.3-15.9 9.6 0 17.3 5.7 17.3 16.3-.1 9.8-7.3 15.9-17.1 15.9zm-.1-28.4c-7.5 0-14.4 4.2-14.4 12.3 0 8.7 6.8 12.3 14.4 12.3 7.5 0 14.1-4 14.1-12.2 0-8.6-6.7-12.4-14.1-12.4zM26.3 85.6h33.5v5c-8 5.3-25.8 17.3-29.4 19.5 4.6-.3 9.7-.3 15.2-.3h14.2v3.5H26.3v-4.7c7.5-5 26.3-17.3 30.1-19.7v-.1c-4.1.3-9.4.3-15.5.3H26.3v-3.5zM56.8 135.6V124h3v27h-3v-11.7H26.3v-3.6l30.5-.1zM42.4 182.6v-17.8H29.3v19.5l-3-.5v-22.6h33.5v22.3h-3v-18.7H45.4v17.8h-3zM26.3 196h33.5v5c-8 5.3-25.8 17.3-29.4 19.5 4.6-.3 9.7-.3 15.2-.3h14.2v3.5H26.3V219c7.5-5 26.3-17.3 30.1-19.7v-.1c-4.1.3-9.4.3-15.5.3H26.3V196zM56.8 246v-11.6h3v27h-3v-11.7H26.3V246h30.5zM35.4 272.8c-4.3 1-6.7 4-6.7 9.5 0 6 2.8 8.3 6.2 8.3 3.6 0 5.7-1.7 7.4-9.2 1.9-7.8 4.3-10.9 9.1-10.9 4.7 0 8.7 3.6 8.7 11.3 0 8-4.6 11.4-8.8 11.9V290c3.3-.8 5.9-3 5.9-8.3 0-4.8-2.1-7.4-5.6-7.4-3.4 0-4.8 2.2-6.2 8.5-2.4 10-6.1 11.6-10.3 11.6-5.1 0-9.4-4-9.4-12.4 0-8.8 4.8-12.3 9.6-13l.1 3.8z"/><g><path class="st1" d="M16.4 406.9L76 347.2c.6-.6.6-1.8 0-2.4-.6-.6-1.8-.6-2.4 0L14 404.5c-.6.6-.6 1.8 0 2.4s1.7.7 2.4 0z"/><path class="st1" d="M76 404.5l-59.7-59.7c-.6-.6-1.8-.6-2.4 0s-.6 1.8 0 2.4l59.7 59.7c.6.6 1.8.6 2.4 0s.7-1.7 0-2.4z"/></g></svg>