<svg version="1.1" id="Layer_1" xmlns="http://www.w3.org/2000/svg" x="0" y="0" viewBox="0 0 232.6 163" xml:space="preserve"><style type="text/css">.st0{fill:#056289}</style><path class="st0" d="M0 0v163h232.6V0H0zm214.9 145.3H17.7V17.7H215v127.6z"/><path class="st0" d="M75.3 80.1c25.1 0 45.4 20.4 45.4 45.5 0 2.3 1.8 4.1 4.1 4.1s4.1-1.8 4.1-4.1c0-29.6-24.1-53.7-53.7-53.7-2.3 0-4.1 1.8-4.1 4.1s1.9 4.1 4.2 4.1z"/><path class="st0" d="M78.1 61c35.6 0 64.5 28.9 64.5 64.5 0 2.3 1.8 4.1 4.1 4.1s4.1-1.8 4.1-4.1c0-40.1-32.6-72.7-72.7-72.7-2.3 0-4.1 1.8-4.1 4.1s1.9 4.1 4.1 4.1z"/><path class="st0" d="M81 41.9c46.1 0 83.6 37.5 83.6 83.6 0 2.3 1.8 4.1 4.1 4.1s4.1-1.8 4.1-4.1c0-50.6-41.2-91.8-91.8-91.8-2.3 0-4.1 1.8-4.1 4.1s1.8 4.1 4.1 4.1z"/></svg>