<svg version="1.1" id="Layer_1" xmlns="http://www.w3.org/2000/svg" x="0" y="0" viewBox="0 0 232.6 158.6" xml:space="preserve"><style type="text/css">.st0{fill:#056289}</style><path class="st0" d="M0 0v158.6h232.6V0H0zm215.4 17.2v25.3H17.2V17.2h198.2zM166 48.7v27h-45.2v-27H166zm-51.4 27H69.4v-27h45.2v27zM18 81.9h45.2v27H18v-27zm51.4 0h45.2v27H69.4v-27zM18 48.7h45.2v27H18v-27zm0 66.4h45.2v26.3H18v-26.3zm51.4 0h45.2v26.3H69.4v-26.3zm51.4 0H166v26.3h-45.2v-26.3zm0-6.2v-27H166v27h-45.2zm51.5-27h43.2v27h-43.2v-27zm0-6.2v-27h43.2v27h-43.2zm0 65.7v-26.3h43.2v26.3h-43.2z"/></svg>