<svg version="1.1" xmlns="http://www.w3.org/2000/svg" x="0" y="0" viewBox="0 0 400 400" xml:space="preserve"><style type="text/css">.st0{display:none}.st1{display:inline;fill-rule:evenodd;clip-rule:evenodd;fill:#003852}.st2{fill:#fff}.st3{display:inline}</style><path class="st0 st1" d="M-94.4-63.2h572.9v552.9H-94.4z" id="Layer_5"/><g id="Layer_1"><circle class="st2" cx="143.7" cy="286" r="4"/><circle class="st2" cx="177.9" cy="286" r="4"/><circle class="st2" cx="211.5" cy="286" r="4"/><circle class="st2" cx="273.7" cy="286" r="4"/><path class="st2" d="M275 116.3c-.2-1.3-.8-2.5-1.9-3.3-1-.8-2.3-1.2-3.6-1l-33 3.9c-1.8.2-3.1 1.4-3.8 2.9v-9.1c0-2.7-2.2-4.9-4.9-4.9h-33.3c-2.7 0-4.9 2.2-4.9 4.9v3.6h-23.8V99.6c0-2.7-2.2-4.9-4.9-4.9h-33.3c-2.7 0-4.9 2.2-4.9 4.9v203c0 2.7 2.2 4.9 4.9 4.9H227.9c2.7 0 4.9-2.2 4.9-4.9V125.5l21.3 179c.2 1.3.8 2.5 1.9 3.3.9.7 2 1.1 3.1 1.1h.6l33-3.9c2.7-.3 4.7-2.8 4.3-5.5l-22-183.2zm-52.3-1.7v13h-23.4v-13h23.4zm-56.9 36h23.4v13.2h-23.4v-13.2zm23.4-27.5v17.6h-23.4v-17.6h23.4zm-33.5 27.6h-23.4v-13.2h23.4v13.2zm0-46.1v23h-23.4v-23h23.4zm-23.4 193.1V160.6h23.4v137.1h-23.4zm33.5 0v-124h23.4v124h-23.4zm33.5 0V137.5h23.4v160.2h-23.4zm71.2-134.9l-23.2 2.8-1.6-13.1 23.2-2.8 1.6 13.1zm-4.8-40.4l2.1 17.5-23.2 2.8-2.1-17.5 23.2-2.8zm-2.6 176.1l-14.6-123.1 23.2-2.8 14.6 123.1-23.2 2.8z"/></g><g class="st0 st3" id="Layer_2"><path class="st2" d="M300.8 114.7h-39.4v-14.5h-10.9v14.5h-90v-14.5h-10.9v14.5h-39.4c-3 0-5.4 2.4-5.4 5.4V278c0 3 2.4 5.4 5.4 5.4h190.5c3 0 5.4-2.4 5.4-5.4V120.1c.1-3-2.3-5.4-5.3-5.4zm-5.5 157.8H115.7v-147h34v14.6h10.9v-14.6h90v14.6h10.9v-14.6h34v147z"/><path class="st2" d="M165.4 164.8h13.8v11.7h-13.8zM198.6 164.8h13.8v11.7h-13.8zM231.8 164.8h13.8v11.7h-13.8zM264.9 164.8h13.8v11.7h-13.8zM132.3 189h13.8v11.7h-13.8zM165.4 189h13.8v11.7h-13.8zM198.6 189h13.8v11.7h-13.8zM231.8 189h13.8v11.7h-13.8zM264.9 189h13.8v11.7h-13.8zM132.3 213.3h13.8V225h-13.8zM165.4 213.3h13.8V225h-13.8zM198.6 213.3h13.8V225h-13.8zM231.8 213.3h13.8V225h-13.8zM264.9 213.3h13.8V225h-13.8zM132.3 237.6h13.8v11.7h-13.8zM165.4 237.6h13.8v11.7h-13.8zM198.6 237.6h13.8v11.7h-13.8zM231.8 237.6h13.8v11.7h-13.8z"/></g><g class="st0 st3" id="Layer_3"><path class="st2" d="M300.7 114.7h-39.4v-14.5h-10.9v14.5h-90v-14.5h-10.9v14.5h-39.4c-3 0-5.4 2.4-5.4 5.4v157.8c0 3 2.4 5.4 5.4 5.4h190.4c3 0 5.4-2.4 5.4-5.4V120.1c.3-3-2.2-5.4-5.2-5.4zm-5.4 157.8H115.7V125.6h33.9v14.5h10.9v-14.5h90v14.5h10.9v-14.5h33.9v146.9z"/><path class="st2" d="M162 222v-8.7l8-7.2c13.4-12 20-18.9 20.2-26.1 0-5-3-9-10.1-9-5.3 0-9.9 2.7-13.2 5.1l-4.1-10.3c4.6-3.5 11.8-6.3 20.2-6.3 13.9 0 21.6 8.1 21.6 19.3 0 10.3-7.5 18.6-16.4 26.5l-5.7 4.7v.2h23.2V222H162zM258.7 160.4v9.1L233.3 222h-15.2l25.4-49.5v-.2h-28.2v-11.8h43.4z"/><g><path class="st2" d="M161.3 237.2h95.9v12.1h-95.9z"/></g></g><g class="st0 st3" id="Layer_4"><path class="st2" d="M269.5 74.5H142.8c-12.8 0-23.1 10.4-23.1 23.1v204.8c0 12.8 10.4 23.1 23.1 23.1h126.6c12.8 0 23.1-10.4 23.1-23.1V97.6c.1-12.8-10.2-23.1-23-23.1zm11.7 227.9c0 6.5-5.3 11.7-11.7 11.7H142.8c-6.5 0-11.7-5.3-11.7-11.7v-20.2h150.1v20.2zm0-31.6H131.1v-158h150.1v158zm0-169.5H131.1v-3.7c0-6.5 5.3-11.7 11.7-11.7h126.6c6.5 0 11.7 5.3 11.7 11.7v3.7z"/><circle class="st2" cx="202.8" cy="298.7" r="8.3"/><path class="st2" d="M252.5 281h-92.8v-78c0-10.8 8.8-19.5 19.5-19.5H233c10.8 0 19.5 8.8 19.5 19.5v78zm-81-11.7h69.4V203c0-4.3-3.5-7.8-7.8-7.8h-53.7c-4.3 0-7.8 3.5-7.8 7.8v66.3z"/><path class="st2" d="M206.2 187.8c-16.3 0-29.5-13.3-29.5-29.5s13.3-29.5 29.5-29.5 29.5 13.3 29.5 29.5-13.2 29.5-29.5 29.5zm0-47.4c-9.9 0-17.9 8-17.9 17.9s8 17.9 17.9 17.9 17.9-8 17.9-17.9-8.1-17.9-17.9-17.9z"/></g></svg>