<?xml version="1.0" encoding="utf-8"?>
<!-- Generator: Adobe Illustrator 19.2.1, SVG Export Plug-In . SVG Version: 6.00 Build 0)  -->
<svg version="1.1" id="Layer_1" xmlns="http://www.w3.org/2000/svg" xmlns:xlink="http://www.w3.org/1999/xlink" x="0px" y="0px"
	 viewBox="0 0 90 408.5" style="enable-background:new 0 0 90 408.5;" xml:space="preserve">
<style type="text/css">
	.st0{fill:#081E2E;}
	.st1{fill:#5E8DA3;}
</style>
<g>
	<path class="st0" d="M35.5,30.3c-5.5-1.7-9.6-5.9-9.6-13.7C25.9,6.4,33.5,1,43,1c9.1,0,17.3,5.3,17.3,15.7c0,7.9-4.2,12.4-9.9,13.6
		v-3.6c4-1.5,6.9-4.2,6.9-10.1c0-8.3-7.2-11.8-14.3-11.8c-6.9,0-14.2,3.3-14.2,12c0,5.6,2.9,8.3,6.6,9.9L35.5,30.3L35.5,30.3z"/>
	<path class="st0" d="M43.3,73c-9.2,0-17.5-5.3-17.5-16.3c0-10.2,7.6-15.9,17.3-15.9c9.6,0,17.3,5.7,17.3,16.3
		C60.3,66.9,53.1,73,43.3,73z M43.2,44.6c-7.5,0-14.4,4.2-14.4,12.3c0,8.7,6.8,12.3,14.4,12.3c7.5,0,14.1-4,14.1-12.2
		C57.3,48.4,50.6,44.6,43.2,44.6z"/>
	<path class="st0" d="M26.3,85.6h33.5v5c-8,5.3-25.8,17.3-29.4,19.5l0,0c4.6-0.3,9.7-0.3,15.2-0.3h14.2v3.5H26.3v-4.7
		c7.5-5,26.3-17.3,30.1-19.7v-0.1c-4.1,0.3-9.4,0.3-15.5,0.3H26.3V85.6z"/>
	<path class="st0" d="M56.8,135.6V124h3v27h-3v-11.7H26.3v-3.6L56.8,135.6L56.8,135.6z"/>
	<path class="st0" d="M42.4,182.6v-17.8H29.3v19.5l-3-0.5v-22.6h33.5v22.3h-3v-18.7H45.4v17.8H42.4z"/>
	<path class="st0" d="M26.3,196h33.5v5c-8,5.3-25.8,17.3-29.4,19.5l0,0c4.6-0.3,9.7-0.3,15.2-0.3h14.2v3.5H26.3V219
		c7.5-5,26.3-17.3,30.1-19.7v-0.1c-4.1,0.3-9.4,0.3-15.5,0.3H26.3V196z"/>
	<path class="st0" d="M56.8,246v-11.6h3v27h-3v-11.7H26.3V246H56.8z"/>
	<path class="st0" d="M35.4,272.8c-4.3,1-6.7,4-6.7,9.5c0,6,2.8,8.3,6.2,8.3c3.6,0,5.7-1.7,7.4-9.2c1.9-7.8,4.3-10.9,9.1-10.9
		c4.7,0,8.7,3.6,8.7,11.3c0,8-4.6,11.4-8.8,11.9V290c3.3-0.8,5.9-3,5.9-8.3c0-4.8-2.1-7.4-5.6-7.4c-3.4,0-4.8,2.2-6.2,8.5
		c-2.4,10-6.1,11.6-10.3,11.6c-5.1,0-9.4-4-9.4-12.4c0-8.8,4.8-12.3,9.6-13L35.4,272.8L35.4,272.8z"/>
</g>
<g>
	<path class="st1" d="M16.4,406.9L76,347.2c0.6-0.6,0.6-1.8,0-2.4c-0.6-0.6-1.8-0.6-2.4,0L14,404.5c-0.6,0.6-0.6,1.8,0,2.4
		S15.7,407.6,16.4,406.9z"/>
	<path class="st1" d="M76,404.5l-59.7-59.7c-0.6-0.6-1.8-0.6-2.4,0s-0.6,1.8,0,2.4l59.7,59.7c0.6,0.6,1.8,0.6,2.4,0
		S76.7,405.2,76,404.5z"/>
</g>
</svg>
