<?xml version="1.0" encoding="utf-8"?>
<!-- Generator: Adobe Illustrator 19.2.1, SVG Export Plug-In . SVG Version: 6.00 Build 0)  -->
<svg version="1.1" id="Layer_1" xmlns="http://www.w3.org/2000/svg" xmlns:xlink="http://www.w3.org/1999/xlink" x="0px" y="0px"
	 viewBox="0 0 232.6 158.6" style="enable-background:new 0 0 232.6 158.6;" xml:space="preserve">
<style type="text/css">
	.st0{fill:#056289;}
</style>
<path class="st0" d="M0,0v158.6h232.6V0H0z M215.4,17.2v25.3H17.2V17.2H215.4z M166,48.7v27h-45.2v-27H166z M114.6,75.7H69.4v-27
	h45.2V75.7z M18,81.9h45.2v27H18V81.9z M69.4,81.9h45.2v27H69.4V81.9z M18,48.7h45.2v27H18V50.4V48.7z M18,115.1h45.2v26.3H18V115.1
	z M69.4,115.1h45.2v26.3H69.4V115.1z M120.8,115.1H166v26.3h-45.2V115.1z M120.8,108.9v-27H166v27H120.8z M172.3,81.9h43.2v27h-43.2
	V81.9z M172.3,75.7v-27h43.2v27H172.3z M172.3,141.4v-26.3h43.2v26.3H172.3z"/>
</svg>
