<?xml version="1.0" encoding="utf-8"?>
<!-- Generator: Adobe Illustrator 19.2.1, SVG Export Plug-In . SVG Version: 6.00 Build 0)  -->
<svg version="1.1" id="Layer_1" xmlns="http://www.w3.org/2000/svg" xmlns:xlink="http://www.w3.org/1999/xlink" x="0px" y="0px"
	 viewBox="0 0 232.6 163" style="enable-background:new 0 0 232.6 163;" xml:space="preserve">
<style type="text/css">
	.st0{fill:#056289;}
</style>
<g>
	<path class="st0" d="M0,0v163h232.6V0H0z M214.9,145.3H17.7V17.7h197.3V145.3z"/>
	<path class="st0" d="M75.3,80.1c25.1,0,45.4,20.4,45.4,45.5c0,2.3,1.8,4.1,4.1,4.1s4.1-1.8,4.1-4.1c0-29.6-24.1-53.7-53.7-53.7
		c-2.3,0-4.1,1.8-4.1,4.1S73,80.1,75.3,80.1z"/>
	<path class="st0" d="M78.1,61c35.6,0,64.5,28.9,64.5,64.5c0,2.3,1.8,4.1,4.1,4.1c2.3,0,4.1-1.8,4.1-4.1c0-40.1-32.6-72.7-72.7-72.7
		c-2.3,0-4.1,1.8-4.1,4.1C74,59.2,75.9,61,78.1,61z"/>
	<path class="st0" d="M81,41.9c46.1,0,83.6,37.5,83.6,83.6c0,2.3,1.8,4.1,4.1,4.1c2.3,0,4.1-1.8,4.1-4.1c0-50.6-41.2-91.8-91.8-91.8
		c-2.3,0-4.1,1.8-4.1,4.1S78.7,41.9,81,41.9z"/>
</g>
</svg>
